HIERARCHY
ROOT Hips
{
 OFFSET 0.000000 0.000000 0.000000
 CHANNELS 6 Xposition Yposition Zposition Yrotation Xrotation Zrotation
 JOINT Chest
 {
  OFFSET 0.000000 9.630565 -1.070063
  CHANNELS 3 Yrotation Xrotation Zrotation
  JOINT Chest2
  {
   OFFSET 0.000000 10.515092 0.000000
   CHANNELS 3 Yrotation Xrotation Zrotation
   JOINT Chest3
   {
    OFFSET 0.000000 9.604626 -0.030425
    CHANNELS 3 Yrotation Xrotation Zrotation
    JOINT Chest4
    {
     OFFSET 0.000000 9.593896 -0.030455
     CHANNELS 3 Yrotation Xrotation Zrotation
     JOINT Neck
     {
      OFFSET 0.000000 13.488791 0.000000
      CHANNELS 3 Yrotation Xrotation Zrotation
      JOINT Head
      {
       OFFSET 0.000000 10.704499 -0.075716
       CHANNELS 3 Yrotation Xrotation Zrotation
       End Site
       {
        OFFSET 0.000000 21.416259 -0.029166
       }
      }
     }
     JOINT RightCollar
     {
      OFFSET -3.054452 7.579305 0.000000
      CHANNELS 3 Yrotation Xrotation Zrotation
      JOINT RightShoulder
      {
       OFFSET -14.776674 0.000000 0.000000
       CHANNELS 3 Yrotation Xrotation Zrotation
       JOINT RightElbow
       {
        OFFSET -30.982767 0.000000 0.000000
        CHANNELS 3 Yrotation Xrotation Zrotation
        JOINT RightWrist
        {
         OFFSET -25.330466 0.000000 0.000000
         CHANNELS 3 Yrotation Xrotation Zrotation
         JOINT RightFinger0
         {
          OFFSET -2.833226 0.000000 2.791865
          CHANNELS 3 Yrotation Xrotation Zrotation
          JOINT RightFinger01
          {
           OFFSET -3.663730 0.000000 0.000000
           CHANNELS 3 Yrotation Xrotation Zrotation
           JOINT RightFinger02
           {
            OFFSET -3.215815 0.000000 0.000000
            CHANNELS 3 Yrotation Xrotation Zrotation
            End Site
            {
             OFFSET -3.215815 0.000000 0.000000
            }
           }
          }
         }
         JOINT RightFinger1
         {
          OFFSET -9.466533 0.000000 1.251169
          CHANNELS 3 Yrotation Xrotation Zrotation
          JOINT RightFinger11
          {
           OFFSET -4.280860 0.000000 0.000000
           CHANNELS 3 Yrotation Xrotation Zrotation
           JOINT RightFinger12
           {
            OFFSET -2.336894 0.000000 0.000000
            CHANNELS 3 Yrotation Xrotation Zrotation
            End Site
            {
             OFFSET -2.099069 0.000000 0.000000
            }
           }
          }
         }
         JOINT RightFinger2
         {
          OFFSET -9.482001 0.000000 0.000000
          CHANNELS 3 Yrotation Xrotation Zrotation
          JOINT RightFinger21
          {
           OFFSET -4.684129 0.000000 0.000000
           CHANNELS 3 Yrotation Xrotation Zrotation
           JOINT RightFinger22
           {
            OFFSET -2.771185 0.000000 0.000000
            CHANNELS 3 Yrotation Xrotation Zrotation
            End Site
            {
             OFFSET -2.202471 0.000000 0.000000
            }
           }
          }
         }
         JOINT RightFinger3
         {
          OFFSET -9.119393 0.000000 -1.261509
          CHANNELS 3 Yrotation Xrotation Zrotation
          JOINT RightFinger31
          {
           OFFSET -4.446304 0.000000 0.000000
           CHANNELS 3 Yrotation Xrotation Zrotation
           JOINT RightFinger32
           {
            OFFSET -2.636761 0.000000 0.000000
            CHANNELS 3 Yrotation Xrotation Zrotation
            End Site
            {
             OFFSET -2.223152 0.000000 0.000000
            }
           }
          }
         }
         JOINT RightFinger4
         {
          OFFSET -8.375151 0.000000 -2.254173
          CHANNELS 3 Yrotation Xrotation Zrotation
          JOINT RightFinger41
          {
           OFFSET -3.712147 0.000000 0.000000
           CHANNELS 3 Yrotation Xrotation Zrotation
           JOINT RightFinger42
           {
            OFFSET -2.016347 0.000000 0.000000
            CHANNELS 3 Yrotation Xrotation Zrotation
            End Site
            {
             OFFSET -2.140430 0.000000 0.000000
            }
           }
          }
         }
        }
       }
      }
     }
     JOINT LeftCollar
     {
      OFFSET 3.054452 7.579305 0.000000
      CHANNELS 3 Yrotation Xrotation Zrotation
      JOINT LeftShoulder
      {
       OFFSET 14.776674 0.000000 0.000000
       CHANNELS 3 Yrotation Xrotation Zrotation
       JOINT LeftElbow
       {
        OFFSET 30.982767 0.000000 0.000000
        CHANNELS 3 Yrotation Xrotation Zrotation
        JOINT LeftWrist
        {
         OFFSET 25.330466 0.000000 0.000000
         CHANNELS 3 Yrotation Xrotation Zrotation
         JOINT LeftFinger0
         {
          OFFSET 2.833226 0.000000 2.791865
          CHANNELS 3 Yrotation Xrotation Zrotation
          JOINT LeftFinger01
          {
           OFFSET 3.663730 0.000000 0.000000
           CHANNELS 3 Yrotation Xrotation Zrotation
           JOINT LeftFinger02
           {
            OFFSET 3.215815 0.000000 0.000000
            CHANNELS 3 Yrotation Xrotation Zrotation
            End Site
            {
             OFFSET 3.215815 0.000000 0.000000
            }
           }
          }
         }
         JOINT LeftFinger1
         {
          OFFSET 9.466533 0.000000 1.251169
          CHANNELS 3 Yrotation Xrotation Zrotation
          JOINT LeftFinger11
          {
           OFFSET 4.280860 0.000000 0.000000
           CHANNELS 3 Yrotation Xrotation Zrotation
           JOINT LeftFinger12
           {
            OFFSET 2.336894 0.000000 0.000000
            CHANNELS 3 Yrotation Xrotation Zrotation
            End Site
            {
             OFFSET 2.099069 0.000000 0.000000
            }
           }
          }
         }
         JOINT LeftFinger2
         {
          OFFSET 9.482001 0.000000 0.000000
          CHANNELS 3 Yrotation Xrotation Zrotation
          JOINT LeftFinger21
          {
           OFFSET 4.684129 0.000000 0.000000
           CHANNELS 3 Yrotation Xrotation Zrotation
           JOINT LeftFinger22
           {
            OFFSET 2.771185 0.000000 0.000000
            CHANNELS 3 Yrotation Xrotation Zrotation
            End Site
            {
             OFFSET 2.202471 0.000000 0.000000
            }
           }
          }
         }
         JOINT LeftFinger3
         {
          OFFSET 9.119393 0.000000 -1.261509
          CHANNELS 3 Yrotation Xrotation Zrotation
          JOINT LeftFinger31
          {
           OFFSET 4.446304 0.000000 0.000000
           CHANNELS 3 Yrotation Xrotation Zrotation
           JOINT LeftFinger32
           {
            OFFSET 2.636761 0.000000 0.000000
            CHANNELS 3 Yrotation Xrotation Zrotation
            End Site
            {
             OFFSET 2.223152 0.000000 0.000000
            }
           }
          }
         }
         JOINT LeftFinger4
         {
          OFFSET 8.375151 0.000000 -2.254173
          CHANNELS 3 Yrotation Xrotation Zrotation
          JOINT LeftFinger41
          {
           OFFSET 3.712147 0.000000 0.000000
           CHANNELS 3 Yrotation Xrotation Zrotation
           JOINT LeftFinger42
           {
            OFFSET 2.016347 0.000000 0.000000
            CHANNELS 3 Yrotation Xrotation Zrotation
            End Site
            {
             OFFSET 2.140430 0.000000 0.000000
            }
           }
          }
         }
        }
       }
      }
     }
    }
   }
  }
 }
 JOINT RightHip
 {
  OFFSET -8.040601 0.075541 -0.008393
  CHANNELS 3 Yrotation Xrotation Zrotation
  JOINT RightKnee
  {
   OFFSET 0.000000 -40.488015 -0.007192
   CHANNELS 3 Yrotation Xrotation Zrotation
   JOINT RightAnkle
   {
    OFFSET 0.000000 -39.536317 -0.012122
    CHANNELS 3 Yrotation Xrotation Zrotation
    JOINT RightToe
    {
     OFFSET 0.000000 -7.815405 17.988983
     CHANNELS 3 Yrotation Xrotation Zrotation
     End Site
     {
      OFFSET 0.000000 -2.689051 7.496003
     }
    }
   }
  }
 }
 JOINT LeftHip
 {
  OFFSET 8.040601 0.073397 -0.008155
  CHANNELS 3 Yrotation Xrotation Zrotation
  JOINT LeftKnee
  {
   OFFSET 0.000000 -40.488015 -0.007192
   CHANNELS 3 Yrotation Xrotation Zrotation
   JOINT LeftAnkle
   {
    OFFSET 0.000000 -39.536317 -0.012122
    CHANNELS 3 Yrotation Xrotation Zrotation
    JOINT LeftToe
    {
     OFFSET 0.000000 -7.815405 17.988983
     CHANNELS 3 Yrotation Xrotation Zrotation
     End Site
     {
      OFFSET 0.000000 -2.689051 7.496003
     }
    }
   }
  }
 }
}
MOTION
Frames: 5
Frame Time: 0.016667
0.000000 90.408098 0.000000 0.000000 6.340192 0.000000 0.000000 -6.340192 0.000000 0.000000 -5.826342 0.000000 0.000000 -0.005910 0.000000 0.000000 5.832252 0.000000 0.000000 12.610213 0.000000 0.000000 -9.243752 0.000000 0.000000 0.000000 0.000000 0.000000 0.000000 0.000000 2.309063 0.000000 0.000000 -2.309063 0.000000 0.000000 0.000000 0.000000 0.000000 0.000000 0.000000 0.000000 0.000000 0.000000 0.000000 0.000000 0.000000 0.000000 0.000000 0.000000 0.000000 0.000000 0.000000 0.000000 0.000000 0.000000 0.000000 0.000000 0.000000 0.000000 0.000000 0.000000 0.000000 0.000000 0.000000 0.000000 0.000000 0.000000 0.000000 0.000000 0.000000 0.000000 0.000000 0.000000 0.000000 0.000000 0.000000 0.000000 0.000000 0.000000 0.000000 0.000000 0.000000 0.000000 0.000000 0.000000 0.000000 -2.309063 0.000000 0.000000 2.309063 0.000000 0.000000 0.000000 0.000000 0.000000 0.000000 0.000000 0.000000 0.000000 0.000000 0.000000 0.000000 0.000000 0.000000 0.000000 0.000000 0.000000 0.000000 0.000000 0.000000 0.000000 0.000000 0.000000 0.000000 0.000000 0.000000 0.000000 0.000000 0.000000 0.000000 0.000000 0.000000 0.000000 0.000000 0.000000 0.000000 0.000000 0.000000 0.000000 0.000000 0.000000 0.000000 0.000000 0.000000 0.000000 0.000000 0.000000 0.000000 -3.591006 0.000000 0.000000 1.872585 0.000000 0.000000 -4.621771 0.000000 0.000000 0.000000 0.000000 0.000000 -3.587706 0.000000 0.000000 1.905768 0.000000 0.000000 -4.658254 0.000000 0.000000 0.000000 0.000000
0.000000 125.000000 0.000000 83.941224 4.076900 1.478869 -1.685108 -2.770200 0.610192 -0.771770 -7.059689 0.262986 -0.766116 -1.239781 0.184625 -0.560233 4.906598 0.137343 -1.382963 17.079014 -0.655151 -2.331778 -4.310939 -0.734189 -8.281137 -11.441933 8.440546 6.756883 11.398851 75.346127 2.510738 10.119878 6.312083 -0.561967 -2.065486 0.362187 91.225525 64.487416 75.979304 -0.110846 0.012168 22.282665 -0.110858 -0.024798 21.565819 -11.506110 7.943263 48.316393 0.685271 3.524100 11.677949 1.330016 3.714984 16.726102 -9.793279 2.764309 46.950259 -0.113585 -0.243019 16.537036 -0.137964 -0.254580 16.404770 -13.492569 -3.447364 42.569517 -2.412072 -7.021512 9.634317 -2.278657 -7.105038 5.985167 -8.603142 -7.545515 33.805986 -3.577144 -6.768996 14.378283 -3.391696 -6.953980 8.933542 3.263150 2.293348 -13.981185 -3.676423 -0.594025 -76.541546 -4.206981 10.493458 -1.252913 5.218089 3.102713 -2.459526 -72.934077 74.312940 -40.929048 0.000003 0.000001 -5.137922 -0.000002 0.000018 9.488625 7.715457 3.078667 -30.719990 -1.960939 3.182277 -16.443425 -1.881662 3.294075 -10.407140 2.748825 -2.777655 -45.987807 -1.268219 2.347813 -14.633947 -1.216566 2.411805 -9.285870 5.334380 -8.666170 -56.229843 0.807340 -1.897629 -11.761437 0.773128 -1.930284 -7.471219 7.202515 -14.315084 -64.994910 1.799933 -2.678645 -17.713157 1.730834 -2.788863 -11.227414 -0.000000 0.000000 0.000000 -0.000000 0.000000 0.000000 -0.000000 0.000000 0.000000 -0.000000 0.000000 0.000000 -0.000000 0.000000 0.000000 -0.000000 0.000000 0.000000 -0.000000 0.000000 0.000000 -0.000000 0.000000 0.000000
0.000000 125.000000 0.000000 83.910367 4.003379 1.497075 -1.663087 -2.746713 0.607627 -0.761941 -7.049213 0.262051 -0.756373 -1.229292 0.184689 -0.552921 4.914468 0.137427 -1.378215 17.106046 -0.650216 -2.324577 -4.260705 -0.727066 -8.193603 -11.320842 8.418373 6.697899 11.146622 75.242744 2.466235 10.100938 6.324447 -0.667240 -2.074643 0.450086 91.226715 64.487516 75.980142 -0.110843 0.012135 22.283257 -0.110850 -0.024816 21.565335 -11.507521 7.943678 48.319296 0.684875 3.523469 11.672817 1.329379 3.714192 16.716635 -9.794974 2.767776 46.951951 -0.113169 -0.242514 16.531691 -0.137282 -0.254011 16.400204 -13.492429 -3.447420 42.566287 -2.412680 -7.021335 9.636835 -2.279234 -7.104913 5.986719 -8.603099 -7.545575 33.806018 -3.577143 -6.768993 14.378294 -3.391706 -6.953975 8.933577 3.234975 2.282257 -13.854451 -3.640490 -0.571972 -76.649576 -4.218210 10.448267 -1.273180 5.218216 3.143334 -2.465512 -72.927953 74.315549 -40.980723 0.000014 -0.000010 -5.120851 -0.000000 0.000010 9.527027 7.690692 3.064241 -30.800090 -1.960128 3.184667 -16.426667 -1.880840 3.296338 -10.396498 2.748737 -2.777000 -45.964788 -1.268260 2.346733 -14.640391 -1.216607 2.410756 -9.289998 5.337765 -8.662126 -56.254801 0.809443 -1.887099 -11.850995 0.775196 -1.920088 -7.528247 7.200742 -14.309010 -64.979295 1.800492 -2.678087 -17.720933 1.731398 -2.788395 -11.232377 -0.000000 -0.000000 0.000000 -0.000000 -0.000000 0.000000 -0.000000 -0.000000 0.000000 -0.000000 -0.000000 0.000000 -0.000000 -0.000000 0.000000 -0.000000 -0.000000 0.000000 -0.000000 -0.000000 0.000000 -0.000000 -0.000000 0.000000
0.000000 125.000000 0.000000 83.887971 3.945815 1.510619 -1.645931 -2.727593 0.607004 -0.754339 -7.040691 0.261940 -0.748838 -1.220760 0.185350 -0.547218 4.920869 0.137952 -1.373784 17.129454 -0.648711 -2.316795 -4.217246 -0.726125 -8.127059 -11.231972 8.407595 6.654537 10.954962 75.156084 2.430889 10.072872 6.335184 -0.747339 -2.070953 0.513868 91.285098 64.485995 76.053538 -0.110308 0.012052 22.257197 -0.110342 -0.024734 21.517157 -11.504709 7.950210 48.328839 0.685610 3.529119 11.665811 1.330639 3.719805 16.704139 -9.788528 2.771353 46.957156 -0.109720 -0.235144 16.525720 -0.133147 -0.246270 16.391930 -13.497703 -3.442309 42.581070 -2.406239 -7.022728 9.610505 -2.273116 -7.105830 5.970330 -8.603577 -7.544146 33.800547 -3.577449 -6.769083 14.379249 -3.391996 -6.954099 8.934170 3.216711 2.273529 -13.762574 -3.616620 -0.553628 -76.726879 -4.228724 10.401652 -1.290155 5.219550 3.183951 -2.468910 -72.933528 74.313772 -41.004312 0.000007 -0.000003 -5.116141 0.000003 0.000013 9.537985 7.678523 3.059991 -30.869165 -1.950975 3.189497 -16.338262 -1.871878 3.300043 -10.340465 2.754507 -2.763009 -45.966674 -1.270389 2.350080 -14.643713 -1.218641 2.414219 -9.292036 5.337005 -8.632299 -56.245577 0.803569 -1.878438 -11.821217 0.769555 -1.911113 -7.509462 7.199384 -14.315524 -64.975439 1.800946 -2.678732 -17.721227 1.731843 -2.789051 -11.232536 0.000000 -0.000000 0.000000 0.000000 -0.000000 0.000000 0.000000 -0.000000 0.000000 0.000000 -0.000000 0.000000 0.000000 -0.000000 0.000000 0.000000 -0.000000 0.000000 0.000000 -0.000000 0.000000 0.000000 -0.000000 0.000000
0.000000 125.000000 0.000000 83.878918 3.913430 1.516509 -1.636976 -2.715530 0.609400 -0.750482 -7.035326 0.263107 -0.745017 -1.215389 0.186908 -0.544230 4.924896 0.139140 -1.370039 17.147739 -0.653254 -2.308223 -4.183376 -0.736059 -8.093625 -11.195249 8.415050 6.636569 10.864504 75.097473 2.411452 10.031057 6.342122 -0.784701 -2.047624 0.537907 91.324403 64.478009 76.099013 -0.109861 0.011980 22.242706 -0.109994 -0.024591 21.474426 -11.498084 7.948296 48.365689 0.683424 3.529567 11.625443 1.325946 3.718799 16.634035 -9.794398 2.755759 46.979863 -0.115634 -0.248374 16.486724 -0.140111 -0.260011 16.333953 -13.492681 -3.444773 42.592145 -2.405912 -7.018857 9.614307 -2.272862 -7.101982 5.972866 -8.571331 -7.596318 33.741253 -3.616031 -6.766948 14.522656 -3.428945 -6.955842 9.022854 3.215226 2.268659 -13.727380 -3.614389 -0.540778 -76.754207 -4.237748 10.350119 -1.301411 5.223719 3.225784 -2.468214 -72.938593 74.293736 -41.056621 0.000009 -0.000012 -5.104475 -0.000004 0.000009 9.564289 7.668249 3.050728 -30.961305 -1.932426 3.190501 -16.198258 -1.853843 3.299036 -10.251985 2.770564 -2.738995 -45.983340 -1.270294 2.351503 -14.634709 -1.218540 2.415623 -9.286303 5.336305 -8.607664 -56.237961 0.798684 -1.871257 -11.796370 0.764878 -1.903653 -7.493753 7.199209 -14.321701 -64.971116 1.802410 -2.679662 -17.728261 1.733245 -2.790117 -11.236919 -0.000000 0.000000 0.000000 -0.000000 0.000000 0.000000 -0.000000 0.000000 0.000000 -0.000000 0.000000 0.000000 -0.000000 0.000000 0.000000 -0.000000 0.000000 0.000000 -0.000000 0.000000 0.000000 -0.000000 0.000000 0.000000
